<svg id="visual" viewBox="0 0 900 450" width="900" height="450" xmlns="http://www.w3.org/2000/svg" xmlns:xlink="http://www.w3.org/1999/xlink" version="1.1"><rect x="0" y="0" width="900" height="450" fill="#111312"></rect><path d="M0 403L10.7 407.3C21.3 411.7 42.7 420.3 64.2 409.8C85.7 399.3 107.3 369.7 128.8 356C150.3 342.3 171.7 344.7 193 352.2C214.3 359.7 235.7 372.3 257 376C278.3 379.7 299.7 374.3 321.2 364.2C342.7 354 364.3 339 385.8 344.3C407.3 349.7 428.7 375.3 450 386.2C471.3 397 492.7 393 514.2 389.3C535.7 385.7 557.3 382.3 578.8 382C600.3 381.7 621.7 384.3 643 377.8C664.3 371.3 685.7 355.7 707 343.8C728.3 332 749.7 324 771.2 335.5C792.7 347 814.3 378 835.8 377.2C857.3 376.3 878.7 343.7 889.3 327.3L900 311L900 451L889.3 451C878.7 451 857.3 451 835.8 451C814.3 451 792.7 451 771.2 451C749.7 451 728.3 451 707 451C685.7 451 664.3 451 643 451C621.7 451 600.3 451 578.8 451C557.3 451 535.7 451 514.2 451C492.7 451 471.3 451 450 451C428.7 451 407.3 451 385.8 451C364.3 451 342.7 451 321.2 451C299.7 451 278.3 451 257 451C235.7 451 214.3 451 193 451C171.7 451 150.3 451 128.8 451C107.3 451 85.7 451 64.2 451C42.7 451 21.3 451 10.7 451L0 451Z" fill="#f99aa3" stroke-linecap="round" stroke-linejoin="miter"></path></svg>