<svg id="visual" viewBox="0 0 900 600" width="900" height="600" xmlns="http://www.w3.org/2000/svg" xmlns:xlink="http://www.w3.org/1999/xlink" version="1.1"><rect x="0" y="0" width="900" height="600" fill="#eceeed"></rect><path d="M0 473L10.7 476.7C21.3 480.3 42.7 487.7 64.2 496C85.7 504.3 107.3 513.7 128.8 516.5C150.3 519.3 171.7 515.7 193 510.8C214.3 506 235.7 500 257 499.5C278.3 499 299.7 504 321.2 499C342.7 494 364.3 479 385.8 474C407.3 469 428.7 474 450 475.3C471.3 476.7 492.7 474.3 514.2 476.7C535.7 479 557.3 486 578.8 482.7C600.3 479.3 621.7 465.7 643 460.7C664.3 455.7 685.7 459.3 707 467C728.3 474.7 749.7 486.3 771.2 491.5C792.7 496.7 814.3 495.3 835.8 491.2C857.3 487 878.7 480 889.3 476.5L900 473" fill="none" stroke-linecap="round" stroke-linejoin="miter" stroke="#902631" stroke-width="60"></path></svg>